<svg id="logo_final" data-name="logo final" xmlns="http://www.w3.org/2000/svg" xmlns:xlink="http://www.w3.org/1999/xlink" viewBox="0 0 243.69 260.16"><defs><style>.cls-1{fill:#4faef9;}.cls-2{fill:url(#Dégradé_sans_nom_15);}.cls-3{fill:url(#Dégradé_sans_nom_15-2);}</style><linearGradient id="Dégradé_sans_nom_15" x1="143.47" y1="149.79" x2="239.01" y2="149.79" gradientUnits="userSpaceOnUse"><stop offset="0" stop-color="#5b7df5"/><stop offset="1" stop-color="#2d41f5"/></linearGradient><linearGradient id="Dégradé_sans_nom_15-2" x1="2817.26" y1="529.82" x2="2632.75" y2="529.82" xlink:href="#Dégradé_sans_nom_15"/></defs><path class="cls-1" d="M2715.07,445.92c25.54,0,46.69,9,65.07,28.4l37.12-34.26.27-.24c-24.45-28.4-61.1-43.48-105.35-43.48-80.13,0-138.35,54.26-138.35,130.06s58.22,130.1,137.26,130.1c35.94,0,74.09-11.14,101.75-32V596.58h-54.06c-14.46,7.54-29,10.34-44.45,10.34-48.14,0-81.58-33.44-81.58-80.52C2632.75,478.62,2666.19,445.92,2715.07,445.92Zm2.23,76.54V569.8h95.54V522.46Z" transform="translate(-2573.83 -396.34)"/><rect class="cls-2" x="143.47" y="126.12" width="95.54" height="47.34"/><path class="cls-3" d="M2758.78,596.58h54.06v27.93c-18.94,13.69-42.18,20.23-67.37,20.23-63.46,0-112.72-54.85-112.72-118.34S2682,414.9,2745.47,414.9a114.47,114.47,0,0,1,71.79,25.16l-37.12,34.26c-18.38-19.42-39.53-28.4-65.07-28.4-48.88,0-82.32,32.7-82.32,80.48,0,47.08,33.44,80.52,81.58,80.52C2729.83,606.92,2744.32,604.12,2758.78,596.58Z" transform="translate(-2573.83 -396.34)"/></svg>